<svg xmlns="http://www.w3.org/2000/svg" viewBox="0 0 24 24" role="img" aria-label="macOS">
  <rect width="24" height="24" rx="5" fill="#111827"/>
  <path d="M15.3 3.2c.1 1.4-.5 2.7-1.3 3.6-.8.9-2 1.6-3.2 1.5-.2-1.3.5-2.7 1.3-3.5.9-1 2.2-1.7 3.2-1.6Z" fill="#F9FAFB"/>
  <path d="M18.4 16.8c-.5 1.1-.8 1.6-1.5 2.6-1 1.5-2.4 3.3-4.1 3.3-1.5 0-1.9-1-3.9-1s-2.5 1-3.9 1c-1.7 0-3-1.6-4-3.1C-1 16.2.7 9.6 4.7 9.4c1.6-.1 2.7 1.1 4 1.1s2.3-1.3 4-1.1c1.4.1 2.8.8 3.7 2-3.2 1.8-2.7 6.2.2 7.4Z" fill="#F9FAFB" transform="translate(3.1 -1.2) scale(.72)"/>
</svg>
